<svg width="12" height="12" viewBox="0 0 12 12" fill="none" xmlns="http://www.w3.org/2000/svg">
<path d="M11.6098 5.78531C11.5414 4.85394 11.2447 3.95396 10.7458 3.16455C10.5962 2.92849 10.428 2.70426 10.2439 2.49392C9.36653 1.45455 8.14925 0.759207 6.80846 0.531441C6.62743 0.502641 6.4464 0.482069 6.26126 0.469727H6.22424H5.84983H5.50834H5.4384C5.27846 0.478984 5.11902 0.496983 4.96114 0.523212C3.59257 0.734587 2.34749 1.43504 1.45578 2.49398C1.27167 2.70433 1.10349 2.92855 0.953841 3.16461C0.45498 3.95404 0.158239 4.85403 0.0898438 5.78537V6.1968V6.60823C0.158243 7.53959 0.45498 8.43957 0.953841 9.22899C1.10349 9.46505 1.27167 9.68927 1.45578 9.89962C2.33316 10.939 3.55044 11.6343 4.89123 11.8621C5.07226 11.8909 5.25329 11.9115 5.43842 11.9238H5.47545H5.84986H6.19135H6.26129C6.42123 11.9146 6.58066 11.8966 6.73855 11.8703C8.10712 11.6589 9.35219 10.9585 10.2439 9.89955C10.429 9.68407 10.5967 9.45418 10.7458 9.21246C11.2421 8.42767 11.5384 7.53384 11.6098 6.60816V6.19673V5.78531ZM10.787 5.78531H9.14128C9.07442 5.11416 8.93659 4.45228 8.72985 3.81046C9.14694 3.71531 9.55888 3.59857 9.96414 3.46075C10.4332 4.15246 10.716 4.95271 10.787 5.78531ZM7.96875 8.43082C7.40406 8.33413 6.83372 8.27499 6.26129 8.2539V6.60819H8.31843C8.28088 7.22945 8.15745 7.84298 7.95226 8.43084L7.96875 8.43082ZM3.40184 6.60816H5.43844V8.25387C4.88712 8.27033 4.33684 8.32381 3.79273 8.41433C3.59678 7.82857 3.46561 7.22276 3.40184 6.60816ZM3.74744 3.96265C4.30647 4.06139 4.87115 4.12053 5.43844 4.13957V5.78528H3.3813C3.41884 5.16402 3.54225 4.55051 3.74744 3.96265ZM8.31843 5.78531H6.26129V4.1396C6.81312 4.1216 7.36289 4.06657 7.907 3.97503C8.10963 4.56182 8.24745 5.16868 8.31843 5.78531ZM9.42516 2.77774C9.09602 2.8806 8.7751 2.96288 8.46242 3.02871C8.25619 2.53397 8.00265 2.05979 7.70539 1.6134C8.34773 1.87671 8.92733 2.27373 9.40455 2.77774H9.42516ZM7.63542 3.18917C7.18079 3.26117 6.72154 3.30385 6.26119 3.31671V1.25957H6.40519C6.90919 1.83094 7.31753 2.47945 7.61479 3.18097L7.63542 3.18917ZM5.43833 1.25961V3.31674C4.97702 3.30234 4.51673 3.26069 4.06002 3.19332C4.39327 2.49955 4.82733 1.85924 5.34778 1.29246L5.43833 1.25961ZM4.04356 1.58464C3.72316 2.03104 3.44751 2.50778 3.22071 3.00811C2.89567 2.93817 2.58299 2.85177 2.28676 2.76126C2.7815 2.2516 3.38064 1.85612 4.04359 1.60103L4.04356 1.58464ZM1.73549 3.46075C2.10989 3.58829 2.50486 3.7035 2.9245 3.80224C2.71674 4.44458 2.59331 5.11109 2.55834 5.78525H0.912632C0.981547 4.95212 1.26492 4.15142 1.73549 3.46075ZM0.912632 6.60814H2.55834C2.6252 7.27928 2.76303 7.94116 2.96977 8.58299C2.55268 8.67761 2.14023 8.79436 1.73549 8.93269C1.26492 8.24201 0.981541 7.44126 0.912632 6.60814ZM2.27857 9.6157C2.58303 9.52107 2.90394 9.43467 3.24131 9.36474C3.44754 9.85948 3.70108 10.3337 3.99834 10.78C3.35446 10.5172 2.77382 10.1202 2.29496 9.6157H2.27857ZM4.0641 9.20427C4.51924 9.13485 4.97798 9.09216 5.43833 9.07673V11.1339H5.29432C4.79084 10.5599 4.38096 9.91038 4.08061 9.20839L4.0641 9.20427ZM6.26119 11.1338V9.0767C6.72147 9.09213 7.18021 9.13481 7.63542 9.20424C7.30217 9.89595 6.86965 10.5346 6.35177 11.1009L6.26119 11.1338ZM7.65596 10.8088C7.9779 10.3634 8.25356 9.88669 8.47881 9.38533C8.78327 9.45116 9.09595 9.53344 9.41686 9.63218C8.9211 10.1424 8.32041 10.5378 7.65596 10.7924V10.8088ZM9.96403 8.93269C9.57265 8.79847 9.1746 8.68584 8.77089 8.59532C8.98073 7.95195 9.10518 7.2839 9.14118 6.6081H10.7869C10.7159 7.44072 10.4331 8.24097 9.96403 8.93269Z" fill="#F0ECE6"/>
</svg>
