<svg width="9" height="12" viewBox="0 0 9 12" fill="none" xmlns="http://www.w3.org/2000/svg">
<path d="M8.97304 0.695232V9.48786C8.97304 9.83689 8.67863 10.0558 8.4418 9.88293C7.18731 8.96708 5.98583 8.27244 4.83778 7.79833L4.66541 7.72934C4.66226 8.06615 4.66983 8.40195 4.68812 8.73677C4.70325 9.01383 4.72206 9.22504 4.7501 9.44158C4.77339 9.62142 4.7952 9.75905 4.86283 10.1639C4.98731 10.9089 4.54418 11.599 3.91448 11.7357C3.87152 11.745 3.82818 11.7517 3.78465 11.7556C3.15209 11.8122 2.58482 11.2883 2.54383 10.5379C2.54081 10.4825 2.54084 10.4269 2.54392 10.3714C2.56688 9.95859 2.57353 9.81836 2.57704 9.63612C2.58127 9.41669 2.57693 9.20418 2.5618 8.92711C2.53083 8.36027 2.46914 7.7961 2.37668 7.23446C2.36737 7.17787 2.36671 7.12153 2.37356 7.06768C2.00371 6.99859 1.62891 6.94583 1.24938 6.90944C1.06399 6.89167 0.920654 6.69392 0.920654 6.45592V3.72717C0.920654 3.4854 1.06843 3.28588 1.25702 3.27303C2.39769 3.19528 3.59121 2.89955 4.83778 2.38476C6.08746 1.86869 7.28701 1.17517 8.43683 0.303863C8.67364 0.124412 8.97304 0.342934 8.97304 0.695232ZM3.09906 7.22049L3.11241 7.30529C3.18934 7.82246 3.24207 8.34195 3.27057 8.86367C3.28721 9.16833 3.29213 9.40933 3.28733 9.65856C3.28344 9.86007 3.27642 10.0084 3.25263 10.436C3.25192 10.4489 3.25191 10.4617 3.25261 10.4745C3.26402 10.6834 3.4683 10.8721 3.73509 10.8482C3.75543 10.8464 3.77568 10.8433 3.7957 10.8389C4.05299 10.7831 4.20116 10.5523 4.16804 10.3541C4.09798 9.93473 4.07492 9.78921 4.04916 9.59035C4.01731 9.3444 3.99598 9.10487 3.97934 8.80022C3.95527 8.35957 3.9485 7.91741 3.959 7.47379C3.6761 7.38065 3.38965 7.29812 3.10023 7.22595L3.09906 7.22049ZM8.26253 1.47808C7.23176 2.20246 6.16281 2.79331 5.05591 3.25042C4.33332 3.54882 3.62593 3.77728 2.93376 3.9356L2.93409 6.26167C3.65848 6.42402 4.36579 6.64768 5.05591 6.93268C6.08821 7.35898 7.157 7.95347 8.26253 8.71569V1.47808ZM2.22342 4.07432C2.02471 4.10638 1.82728 4.13247 1.63116 4.15258V6.03798C1.82983 6.06195 2.02728 6.09029 2.22352 6.12299L2.22342 4.07432Z" fill="#F0ECE6"/>
</svg>
