<svg width="12" height="12" viewBox="0 0 12 12" fill="none" xmlns="http://www.w3.org/2000/svg">
<path d="M10.9674 3.14207C10.7717 2.81135 10.4915 2.5387 10.1557 2.35566L6.77655 0.503881C6.13909 0.151701 5.3653 0.151701 4.72785 0.503881L1.34995 2.35566C0.66705 2.7293 0.24292 3.44629 0.24292 4.22512V7.77469C0.24292 8.55352 0.66705 9.26924 1.34995 9.64288L4.72911 11.4934C5.04468 11.6663 5.38929 11.7522 5.73516 11.756C5.74147 11.756 5.74652 11.7597 5.75283 11.7597C5.75914 11.7597 5.76419 11.756 5.7705 11.756C6.12268 11.7534 6.46855 11.6625 6.77655 11.4934L10.1557 9.64288C10.8386 9.26924 11.2627 8.55226 11.2627 7.77469V4.22386C11.2627 3.83633 11.158 3.46522 10.9686 3.14334L10.9674 3.14207ZM1.74505 8.92085C1.32597 8.69111 1.06593 8.25057 1.06593 7.77343V4.22386C1.06593 3.74671 1.32597 3.30617 1.74505 3.0777L5.12421 1.22717C5.51552 1.01132 5.99014 1.01132 6.38145 1.22717L9.76061 3.0777C9.83508 3.11935 9.90325 3.16858 9.96762 3.2216L6.38271 5.1832C5.9914 5.39905 5.51678 5.39905 5.12547 5.1832L2.54029 3.76817C2.34338 3.65456 2.09218 3.72273 1.97857 3.91965C1.86497 4.11656 1.93313 4.36776 2.13005 4.48137C2.1351 4.48389 2.14015 4.48768 2.1452 4.4902L4.72785 5.90523C4.92224 6.01253 5.12926 6.08195 5.34132 6.12361V10.8572C5.26811 10.832 5.19363 10.8092 5.12421 10.7714L1.74505 8.92085ZM10.4397 7.77343C10.4397 8.25183 10.1797 8.69111 9.76061 8.92085L6.38145 10.7726C6.31202 10.8105 6.23755 10.8332 6.16434 10.8585V6.12487C6.37893 6.08322 6.58594 6.01 6.77781 5.90649L10.4019 3.92217C10.4258 4.02063 10.4397 4.12161 10.4397 4.22512V7.77343Z" fill="#F0ECE6"/>
</svg>
