<svg width="9" height="13" viewBox="0 0 9 13" fill="none" xmlns="http://www.w3.org/2000/svg">
<path d="M0.600097 5.30907C0.600097 4.80938 1.00518 4.4043 1.50487 4.4043L4.67139 4.4043L4.67139 8.02394C4.67139 8.52363 5.07647 8.92871 5.57616 8.92871L7.83791 8.92871C8.3376 8.92871 8.74268 9.33379 8.74268 9.83348L8.74268 12.0952C8.74268 12.5949 8.3376 13 7.83791 13L1.50487 13C1.00518 13 0.600098 12.5949 0.600098 12.0952L0.600097 5.30907ZM7.83791 0.333007C8.3376 0.333007 8.74268 0.738086 8.74268 1.23778L8.74268 3.49953C8.74268 3.99922 8.3376 4.4043 7.83791 4.4043L4.67139 4.4043L4.67139 1.23778C4.67139 0.738087 5.07647 0.333008 5.57616 0.333008L7.83791 0.333007Z" fill="white"/>
</svg>
