<svg width="10" height="12" viewBox="0 0 10 12" fill="none" xmlns="http://www.w3.org/2000/svg">
<path d="M8.11863 0.239746C8.5387 0.239746 8.94158 0.406566 9.23868 0.70353C9.53579 1.00049 9.70281 1.40329 9.70301 1.82336V10.1761C9.70281 10.5962 9.53579 10.999 9.23868 11.296C8.94158 11.5929 8.5387 11.7597 8.11863 11.7597H1.78263C1.36255 11.7597 0.959677 11.5929 0.662569 11.296C0.365461 10.999 0.198446 10.5962 0.198242 10.1761V1.82336C0.198446 1.40329 0.365461 1.00049 0.662569 0.70353C0.959677 0.406566 1.36255 0.239746 1.78263 0.239746H8.11863ZM6.10263 9.60013H3.79863C3.74036 9.59767 3.6822 9.60703 3.62765 9.62763C3.5731 9.64823 3.52327 9.67966 3.48118 9.72001C3.43908 9.76037 3.40559 9.80882 3.3827 9.86246C3.35982 9.9161 3.34802 9.97381 3.34802 10.0321C3.34802 10.0904 3.35982 10.1482 3.3827 10.2018C3.40559 10.2554 3.43908 10.3039 3.48118 10.3442C3.52327 10.3846 3.5731 10.416 3.62765 10.4366C3.6822 10.4572 3.74036 10.4666 3.79863 10.4641H6.10263C6.21405 10.4594 6.31935 10.4119 6.39652 10.3314C6.4737 10.2509 6.51679 10.1437 6.51679 10.0321C6.51679 9.92061 6.4737 9.8134 6.39652 9.7329C6.31935 9.6524 6.21405 9.60483 6.10263 9.60013ZM8.11863 1.10375H1.78263C1.68806 1.10375 1.59442 1.12238 1.50706 1.1586C1.41971 1.19481 1.34034 1.24788 1.27351 1.31479C1.20668 1.38169 1.15369 1.46111 1.11757 1.54851C1.08145 1.63591 1.06291 1.72956 1.06301 1.82413V8.30375H8.83824V1.82336C8.83824 1.72886 8.81963 1.63528 8.78347 1.54798C8.7473 1.46067 8.6943 1.38134 8.62747 1.31452C8.56065 1.24769 8.48132 1.19469 8.39401 1.15852C8.3067 1.12236 8.21313 1.10375 8.11863 1.10375Z" fill="#F0ECE6"/>
</svg>
