<svg width="55" height="65" viewBox="0 0 55 65" fill="none" xmlns="http://www.w3.org/2000/svg">
<path d="M24.1445 0.000782308C29.9013 0.0886729 33.0214 4.17559 35.6582 2.02227H36.0097C36.0537 5.09844 37.3281 12.0857 38.8222 16.6561H38.3828C36.3173 10.6355 32.7578 0.616017 24.1884 0.440235C20.2773 0.352345 18.0361 2.6375 17.8164 5.62578C17.289 12.1297 22.123 15.6893 30.2968 16.0408H30.2529C30.7363 15.9969 31.2636 15.9969 31.747 15.9529C32.0546 15.9529 32.0986 15.9529 32.2304 15.9529L32.538 16.3045C32.2304 16.3484 31.9668 16.3484 31.6591 16.3484C21.8593 16.8758 6.17083 22.325 6.39056 41.1336C6.61028 58.8435 18.7392 64.5564 30.3408 63.4578C52.4453 61.3484 56.7959 35.8162 41.0195 25.9285C40.3603 26.1043 39.7451 26.2801 39.2177 26.4559C30.7802 29.3123 25.1992 29.0047 24.7597 25.7527C24.2324 21.534 31.3955 22.0174 33.6806 22.5887C34.955 22.8523 36.0976 23.16 37.2402 23.5994C37.416 23.5555 37.5478 23.5115 37.7236 23.4676C47.9189 20.699 53.3681 27.5545 54.9941 31.1141H54.5986C51.6543 25.0935 45.8535 24.9178 41.6787 25.7967C56.9277 35.6844 53.9834 61.5242 30.3847 64.3807C14.4765 66.3143 0.721611 59.3269 0.0184863 42.2762C-0.552803 26.6316 12.1914 18.1502 27.9238 16.3045C22.4306 15.5574 12.5429 14.1072 13.1142 6.85625C13.4658 1.75859 18.6953 -0.043163 24.1445 0.000782308ZM29.9892 22.5008C27.6162 22.5447 25.8584 23.2479 25.7265 24.5662C25.5068 26.9832 30.6484 25.4012 36.5371 23.7752C35.4824 23.4236 34.4277 23.116 33.2851 22.8523C32.1425 22.6326 31 22.5008 29.9892 22.5008Z" fill="#FBFBFB"/>
</svg>
